<svg width="212" height="57" viewBox="0 0 212 57" fill="none" xmlns="http://www.w3.org/2000/svg">
<rect x="1.05" y="1.05" width="209.9" height="54.9" rx="6.95" fill="url(#paint0_linear_1_50)"/>
<g clip-path="url(#clip0_1_50)">
<path d="M12 34.8621V33.4483H25.5714V34.8621H49.1429V41.2241H48.4286V41.931H47.7143V42.6379H45.5714V44.0517H44.8571V44.7586H44.1429V45.4655H43.4286V46.1724H39.1429V47.5862H38.4286V48.2931H37.7143V49H26.2857V48.2931H25.5714V47.5862H24.8571V46.1724H19.8571V45.4655H19.1429V44.7586H18.4286V44.0517H17.7143V42.6379H16.2857V41.931H15.5714V41.2241H14.8571V36.2759H13.4286V35.569H12.7143V34.8621H12Z" fill="#012647"/>
<path d="M18.4286 10.8276H44.8571V39.8103H18.4286V10.8276Z" fill="#278EED"/>
<path d="M15.5714 32.7414H18.4286V33.4483H15.5714V32.7414Z" fill="#278EED"/>
<path d="M19.1429 13.6552H38.4286V33.4483H19.1429V13.6552Z" fill="#3DA2FF"/>
<path d="M38.4286 20.7241H42V30.6207H38.4286V20.7241Z" fill="#3DA2FF"/>
<path d="M32 33.4483H35.5714V36.9828H32V33.4483Z" fill="#3DA2FF"/>
<path d="M35.5714 33.4483H38.4286V36.9828H35.5714V33.4483Z" fill="#2E95F4"/>
<path d="M38.4286 30.6207H42V33.4483H38.4286V30.6207Z" fill="#2E95F4"/>
<path d="M24.8571 13.6552H32V23.5517H24.8571V13.6552Z" fill="#57AAFF"/>
<path d="M24.8571 23.5517H28.4286V27.0862H24.8571V23.5517Z" fill="#57AAFF"/>
<path d="M35.5714 13.6552H38.4286V20.7241H35.5714V13.6552Z" fill="#4BA8FF"/>
<path d="M35.5714 23.5517H38.4286V30.6207H35.5714V23.5517Z" fill="#4BA8FF"/>
<path d="M32 27.0862H35.5714V33.4483H32V27.0862Z" fill="#4BA8FF"/>
<path d="M25.5714 30.6207H32V34.8621H25.5714V30.6207Z" fill="#4BA8FF"/>
<path d="M18.4286 36.9828H22V39.8103H18.4286V36.9828Z" fill="#0D74D3"/>
<path d="M25.5714 41.931H28.4286V43.3448H25.5714V41.931Z" fill="#0D74D3"/>
<path d="M44.8571 30.6207H46.2857V33.4483H44.8571V30.6207Z" fill="#0D74D3"/>
<path d="M44.8571 20.7241H47V27.0862H44.8571V20.7241Z" fill="#0D74D3"/>
<path d="M42 33.4483H44.8571V39.8103H42V33.4483Z" fill="#0D74D3"/>
<path d="M38.4286 36.9828H42V39.8103H38.4286V36.9828Z" fill="#0D74D3"/>
<path d="M18.4286 39.8103H25.5714V43.3448H18.4286V39.8103Z" fill="#014E96"/>
<path d="M25.5714 43.3448H38.4286V46.8793H25.5714V43.3448Z" fill="#014E96"/>
<path d="M38.4286 39.8103H44.8571V43.3448H38.4286V39.8103Z" fill="#014E96"/>
<path d="M44.8571 33.4483H48.4286V39.8103H44.8571V33.4483Z" fill="#014E96"/>
<path d="M25.5714 8H38.4286V10.8276H25.5714V8Z" fill="#0157A9"/>
<path d="M12 20.7241H15.5714V33.4483H12V20.7241Z" fill="#0157A9"/>
<path d="M15.5714 33.4483H18.4286V39.8103H15.5714V33.4483Z" fill="#0157A9"/>
<path d="M42 20.7241H44.8571V23.5517H42V20.7241Z" fill="#3198F7"/>
<path d="M48.4286 34.8621V33.4483H52V34.8621H51.2857V35.569H50.5714V36.2759H49.1429V34.8621H48.4286Z" fill="#132E2F"/>
<path d="M25.5714 34.8621H32V36.9828H25.5714V34.8621Z" fill="#6EC310"/>
<path d="M28.4286 17.8965H29.1429V19.3103H28.4286V17.8965Z" fill="#6EC310"/>
<path d="M29.1429 13.6552H31.2857V15.069H29.1429V13.6552Z" fill="#6EC310"/>
<path d="M29.1429 20.7241V19.3103H29.8571V20.0172H30.5714V20.7241H29.1429Z" fill="#6EC310"/>
<path d="M22 17.1897V13.6552H27.7143V15.069H27V15.7759H27.7143V17.1897H22Z" fill="#6EC310"/>
<path d="M22 23.5517V17.1897H18.4286V23.5517H15.5714V32.7414H18.4286V33.4483H22V32.0345H20.5714V31.3276H19.1429V29.2069H19.8571V28.5H22V29.2069H22.7143V29.9138H23.4286V27.0862H24.8571V23.5517H22Z" fill="#6EC310"/>
<path d="M25.5714 39.8103V36.9828H36.2857V39.8103H25.5714Z" fill="#57B10F"/>
<path d="M15.5714 23.5517V20.7241H18.4286V23.5517H15.5714Z" fill="#57B10F"/>
<path d="M18.4286 17.1897V13.6552H22V17.1897H18.4286Z" fill="#57B10F"/>
<path d="M25.5714 13.6552V10.8276H32V12.2414H31.2857V13.6552H29.1429V12.9483H27.7143V13.6552H25.5714Z" fill="#57B10F"/>
<path d="M18.4286 34.1552V33.4483H22V34.1552H23.4286V35.569H24.1429V36.2759H25.5714V36.9828H23.4286V36.2759H22.7143V35.569H20.5714V34.1552H18.4286Z" fill="#58AE01"/>
<path d="M39.8571 15.7759V13.6552H44.8571V20.0172H44.1429V17.1897H42V15.7759H39.8571Z" fill="#448001"/>
<path d="M47 20.7241H48.4286V33.4483H46.2857V30.6207H44.8571V27.0862H47V20.7241Z" fill="#448001"/>
<path d="M38.4286 43.3448V39.8103H25.5714V41.931H28.4286V43.3448H38.4286Z" fill="#448001"/>
<path d="M18.4286 13.6552V10.8276H25.5714V13.6552H18.4286V20.7241H15.5714V13.6552H18.4286Z" fill="#2A5401"/>
<path d="M38.4286 13.6552V10.8276H44.8571V13.6552H48.4286V20.7241H52V33.4483H48.4286V20.7241H44.8571V13.6552H38.4286Z" fill="#2A5401"/>
<path d="M30.5714 44.0517V43.3448H36.2857V44.0517H35.5714V46.1724H34.8571V46.8793H32.7143V45.4655H31.2857V44.0517H30.5714Z" fill="#2A5401"/>
<path d="M48.4286 34.8621V33.4483H47V34.1552H47.7143V34.8621H48.4286Z" fill="#2A5401"/>
<path d="M22 23.5517V17.1897H28.4286V23.5517H22Z" fill="white"/>
</g>
<g filter="url(#filter0_d_1_50)">
<path d="M62.2614 25H60.3977L64.5852 13.3636H66.6136L70.8011 25H68.9375L65.6477 15.4773H65.5568L62.2614 25ZM62.5739 20.4432H68.6193V21.9205H62.5739V20.4432ZM78.7173 16.2727L75.5526 25H73.7344L70.5639 16.2727H72.3878L74.598 22.9886H74.6889L76.8935 16.2727H78.7173ZM82.6037 25.1932C82.0507 25.1932 81.5507 25.0909 81.1037 24.8864C80.6567 24.678 80.3026 24.3769 80.0412 23.983C79.7836 23.589 79.6548 23.1061 79.6548 22.5341C79.6548 22.0417 79.7495 21.6364 79.9389 21.3182C80.1283 21 80.384 20.7481 80.706 20.5625C81.0279 20.3769 81.3878 20.2367 81.7855 20.142C82.1832 20.0474 82.5885 19.9754 83.0014 19.9261C83.5241 19.8655 83.9484 19.8163 84.2741 19.7784C84.5999 19.7367 84.8366 19.6705 84.9844 19.5795C85.1321 19.4886 85.206 19.3409 85.206 19.1364V19.0966C85.206 18.6004 85.0658 18.2159 84.7855 17.9432C84.509 17.6705 84.0961 17.5341 83.5469 17.5341C82.9749 17.5341 82.5241 17.661 82.1946 17.9148C81.8688 18.1648 81.6435 18.4432 81.5185 18.75L79.9219 18.3864C80.1113 17.8561 80.3878 17.428 80.7514 17.1023C81.1188 16.7727 81.5412 16.5341 82.0185 16.3864C82.4957 16.2349 82.9976 16.1591 83.5241 16.1591C83.8726 16.1591 84.2419 16.2008 84.6321 16.2841C85.026 16.3636 85.3935 16.5114 85.7344 16.7273C86.0791 16.9432 86.3613 17.2519 86.581 17.6534C86.8007 18.0511 86.9105 18.5682 86.9105 19.2045V25H85.2514V23.8068H85.1832C85.0734 24.0265 84.9086 24.2424 84.6889 24.4545C84.4692 24.6667 84.187 24.8428 83.8423 24.983C83.4976 25.1231 83.0847 25.1932 82.6037 25.1932ZM82.973 23.8295C83.4427 23.8295 83.8442 23.7367 84.1775 23.5511C84.5147 23.3655 84.7704 23.1231 84.9446 22.8239C85.1226 22.5208 85.2116 22.197 85.2116 21.8523V20.7273C85.151 20.7879 85.0336 20.8447 84.8594 20.8977C84.6889 20.947 84.4938 20.9905 84.2741 21.0284C84.0544 21.0625 83.8404 21.0947 83.6321 21.125C83.4238 21.1515 83.2495 21.1742 83.1094 21.1932C82.7798 21.2348 82.4787 21.3049 82.206 21.4034C81.937 21.5019 81.7211 21.6439 81.5582 21.8295C81.3991 22.0114 81.3196 22.2538 81.3196 22.5568C81.3196 22.9773 81.4749 23.2955 81.7855 23.5114C82.0961 23.7235 82.4919 23.8295 82.973 23.8295ZM89.1733 25V16.2727H90.8722V25H89.1733ZM90.0312 14.9261C89.7358 14.9261 89.482 14.8277 89.2699 14.6307C89.0615 14.4299 88.9574 14.1913 88.9574 13.9148C88.9574 13.6345 89.0615 13.3958 89.2699 13.1989C89.482 12.9981 89.7358 12.8977 90.0312 12.8977C90.3267 12.8977 90.5786 12.9981 90.7869 13.1989C90.999 13.3958 91.1051 13.6345 91.1051 13.9148C91.1051 14.1913 90.999 14.4299 90.7869 14.6307C90.5786 14.8277 90.3267 14.9261 90.0312 14.9261ZM94.8565 13.3636V25H93.1577V13.3636H94.8565ZM99.6818 25.1932C99.1288 25.1932 98.6288 25.0909 98.1818 24.8864C97.7348 24.678 97.3807 24.3769 97.1193 23.983C96.8617 23.589 96.7329 23.1061 96.7329 22.5341C96.7329 22.0417 96.8276 21.6364 97.017 21.3182C97.2064 21 97.4621 20.7481 97.7841 20.5625C98.106 20.3769 98.4659 20.2367 98.8636 20.142C99.2614 20.0474 99.6667 19.9754 100.08 19.9261C100.602 19.8655 101.027 19.8163 101.352 19.7784C101.678 19.7367 101.915 19.6705 102.062 19.5795C102.21 19.4886 102.284 19.3409 102.284 19.1364V19.0966C102.284 18.6004 102.144 18.2159 101.864 17.9432C101.587 17.6705 101.174 17.5341 100.625 17.5341C100.053 17.5341 99.6023 17.661 99.2727 17.9148C98.947 18.1648 98.7216 18.4432 98.5966 18.75L97 18.3864C97.1894 17.8561 97.4659 17.428 97.8295 17.1023C98.197 16.7727 98.6193 16.5341 99.0966 16.3864C99.5739 16.2349 100.076 16.1591 100.602 16.1591C100.951 16.1591 101.32 16.2008 101.71 16.2841C102.104 16.3636 102.472 16.5114 102.812 16.7273C103.157 16.9432 103.439 17.2519 103.659 17.6534C103.879 18.0511 103.989 18.5682 103.989 19.2045V25H102.33V23.8068H102.261C102.152 24.0265 101.987 24.2424 101.767 24.4545C101.547 24.6667 101.265 24.8428 100.92 24.983C100.576 25.1231 100.163 25.1932 99.6818 25.1932ZM100.051 23.8295C100.521 23.8295 100.922 23.7367 101.256 23.5511C101.593 23.3655 101.848 23.1231 102.023 22.8239C102.201 22.5208 102.29 22.197 102.29 21.8523V20.7273C102.229 20.7879 102.112 20.8447 101.937 20.8977C101.767 20.947 101.572 20.9905 101.352 21.0284C101.133 21.0625 100.919 21.0947 100.71 21.125C100.502 21.1515 100.328 21.1742 100.187 21.1932C99.8579 21.2348 99.5568 21.3049 99.2841 21.4034C99.0151 21.5019 98.7992 21.6439 98.6364 21.8295C98.4773 22.0114 98.3977 22.2538 98.3977 22.5568C98.3977 22.9773 98.553 23.2955 98.8636 23.5114C99.1742 23.7235 99.5701 23.8295 100.051 23.8295ZM106.388 25V13.3636H108.087V17.6875H108.189C108.287 17.5057 108.429 17.2955 108.615 17.0568C108.801 16.8182 109.058 16.6099 109.388 16.4318C109.717 16.25 110.153 16.1591 110.695 16.1591C111.399 16.1591 112.028 16.3371 112.581 16.6932C113.134 17.0492 113.568 17.5625 113.882 18.233C114.2 18.9034 114.359 19.7102 114.359 20.6534C114.359 21.5966 114.202 22.4053 113.888 23.0795C113.573 23.75 113.142 24.267 112.592 24.6307C112.043 24.9905 111.416 25.1705 110.712 25.1705C110.181 25.1705 109.748 25.0814 109.41 24.9034C109.077 24.7254 108.816 24.517 108.626 24.2784C108.437 24.0398 108.291 23.8277 108.189 23.642H108.047V25H106.388ZM108.053 20.6364C108.053 21.25 108.142 21.7879 108.32 22.25C108.498 22.7121 108.755 23.0739 109.092 23.3352C109.429 23.5928 109.842 23.7216 110.331 23.7216C110.839 23.7216 111.263 23.5871 111.604 23.3182C111.945 23.0455 112.202 22.6761 112.376 22.2102C112.554 21.7443 112.643 21.2197 112.643 20.6364C112.643 20.0606 112.556 19.5436 112.382 19.0852C112.212 18.6269 111.954 18.2652 111.609 18C111.268 17.7349 110.842 17.6023 110.331 17.6023C109.839 17.6023 109.422 17.7292 109.081 17.983C108.744 18.2367 108.488 18.5909 108.314 19.0455C108.14 19.5 108.053 20.0303 108.053 20.6364ZM117.966 13.3636V25H116.267V13.3636H117.966ZM124.013 25.1761C123.153 25.1761 122.412 24.9924 121.791 24.625C121.174 24.2538 120.696 23.733 120.359 23.0625C120.026 22.3883 119.859 21.5985 119.859 20.6932C119.859 19.7992 120.026 19.0114 120.359 18.3295C120.696 17.6477 121.166 17.1155 121.768 16.733C122.375 16.3504 123.083 16.1591 123.893 16.1591C124.386 16.1591 124.863 16.2405 125.325 16.4034C125.787 16.5663 126.202 16.822 126.57 17.1705C126.937 17.5189 127.227 17.9716 127.439 18.5284C127.651 19.0814 127.757 19.7538 127.757 20.5455V21.1477H120.82V19.875H126.092C126.092 19.428 126.001 19.0322 125.82 18.6875C125.638 18.339 125.382 18.0644 125.053 17.8636C124.727 17.6629 124.344 17.5625 123.905 17.5625C123.428 17.5625 123.011 17.6799 122.655 17.9148C122.303 18.1458 122.03 18.4489 121.837 18.8239C121.647 19.1951 121.553 19.5985 121.553 20.0341V21.0284C121.553 21.6117 121.655 22.108 121.859 22.517C122.068 22.9261 122.357 23.2386 122.729 23.4545C123.1 23.6667 123.534 23.7727 124.03 23.7727C124.352 23.7727 124.645 23.7273 124.91 23.6364C125.176 23.5417 125.405 23.4015 125.598 23.2159C125.791 23.0303 125.939 22.8011 126.041 22.5284L127.649 22.8182C127.52 23.2917 127.289 23.7064 126.956 24.0625C126.626 24.4148 126.212 24.6894 125.712 24.8864C125.215 25.0795 124.649 25.1761 124.013 25.1761ZM137.553 25.1761C136.734 25.1761 136.02 24.9886 135.41 24.6136C134.801 24.2386 134.327 23.714 133.99 23.0398C133.653 22.3655 133.484 21.5777 133.484 20.6761C133.484 19.7708 133.653 18.9792 133.99 18.3011C134.327 17.6231 134.801 17.0966 135.41 16.7216C136.02 16.3466 136.734 16.1591 137.553 16.1591C138.371 16.1591 139.085 16.3466 139.695 16.7216C140.304 17.0966 140.778 17.6231 141.115 18.3011C141.452 18.9792 141.621 19.7708 141.621 20.6761C141.621 21.5777 141.452 22.3655 141.115 23.0398C140.778 23.714 140.304 24.2386 139.695 24.6136C139.085 24.9886 138.371 25.1761 137.553 25.1761ZM137.558 23.75C138.089 23.75 138.528 23.6098 138.876 23.3295C139.225 23.0492 139.482 22.6761 139.649 22.2102C139.82 21.7443 139.905 21.2311 139.905 20.6705C139.905 20.1136 139.82 19.6023 139.649 19.1364C139.482 18.6667 139.225 18.2898 138.876 18.0057C138.528 17.7216 138.089 17.5795 137.558 17.5795C137.024 17.5795 136.581 17.7216 136.229 18.0057C135.88 18.2898 135.621 18.6667 135.45 19.1364C135.284 19.6023 135.2 20.1136 135.2 20.6705C135.2 21.2311 135.284 21.7443 135.45 22.2102C135.621 22.6761 135.88 23.0492 136.229 23.3295C136.581 23.6098 137.024 23.75 137.558 23.75ZM145.216 19.8182V25H143.517V16.2727H145.148V17.6932H145.256C145.456 17.2311 145.771 16.8599 146.199 16.5795C146.631 16.2992 147.174 16.1591 147.83 16.1591C148.424 16.1591 148.945 16.2841 149.392 16.5341C149.839 16.7803 150.186 17.1477 150.432 17.6364C150.678 18.125 150.801 18.7292 150.801 19.4489V25H149.102V19.6534C149.102 19.0208 148.937 18.5265 148.608 18.1705C148.278 17.8106 147.826 17.6307 147.25 17.6307C146.856 17.6307 146.506 17.7159 146.199 17.8864C145.896 18.0568 145.655 18.3068 145.477 18.6364C145.303 18.9621 145.216 19.3561 145.216 19.8182Z" fill="white"/>
<path d="M60.9357 44V31.6364H66.043C66.9686 31.6364 67.7675 31.8175 68.4396 32.1797C69.1158 32.5379 69.637 33.0389 70.0032 33.6829C70.3694 34.3228 70.5526 35.0674 70.5526 35.9165C70.5526 36.7698 70.3654 37.5163 69.9911 38.1562C69.6209 38.7921 69.0916 39.2852 68.4034 39.6353C67.7152 39.9854 66.8982 40.1605 65.9524 40.1605H62.8011V37.8061H65.397C65.8478 37.8061 66.2241 37.7276 66.5259 37.5707C66.8318 37.4137 67.0632 37.1944 67.2202 36.9126C67.3771 36.6269 67.4556 36.2949 67.4556 35.9165C67.4556 35.5342 67.3771 35.2042 67.2202 34.9265C67.0632 34.6448 66.8318 34.4274 66.5259 34.2745C66.2201 34.1216 65.8437 34.0451 65.397 34.0451H63.924V44H60.9357ZM74.9776 31.6364V44H72.0256V31.6364H74.9776ZM79.4706 44.157C78.879 44.157 78.3538 44.0584 77.895 43.8611C77.4402 43.6599 77.08 43.3581 76.8144 42.9556C76.5528 42.5491 76.422 42.04 76.422 41.4283C76.422 40.9131 76.5125 40.4785 76.6936 40.1243C76.8747 39.7701 77.1243 39.4824 77.4422 39.261C77.7601 39.0397 78.1264 38.8726 78.5409 38.7599C78.9555 38.6432 79.3982 38.5647 79.869 38.5245C80.3963 38.4762 80.8209 38.4259 81.1428 38.3736C81.4648 38.3172 81.6982 38.2388 81.8431 38.1381C81.992 38.0335 82.0665 37.8866 82.0665 37.6974V37.6673C82.0665 37.3574 81.9598 37.1179 81.7465 36.9489C81.5332 36.7798 81.2455 36.6953 80.8833 36.6953C80.4929 36.6953 80.1789 36.7798 79.9415 36.9489C79.704 37.1179 79.5531 37.3513 79.4887 37.6491L76.7661 37.5526C76.8466 36.9891 77.0538 36.486 77.3879 36.0433C77.7259 35.5966 78.1888 35.2464 78.7764 34.9929C79.368 34.7353 80.0783 34.6065 80.9074 34.6065C81.499 34.6065 82.0444 34.677 82.5434 34.8178C83.0425 34.9547 83.4771 35.1559 83.8474 35.4215C84.2176 35.6831 84.5034 36.0051 84.7046 36.3874C84.9099 36.7698 85.0125 37.2064 85.0125 37.6974V44H82.2355V42.7081H82.1631C81.9981 43.022 81.7868 43.2876 81.5292 43.505C81.2757 43.7223 80.9758 43.8853 80.6297 43.994C80.2876 44.1026 79.9012 44.157 79.4706 44.157ZM80.3822 42.2251C80.7001 42.2251 80.9859 42.1607 81.2394 42.032C81.497 41.9032 81.7023 41.7261 81.8552 41.5007C82.0081 41.2713 82.0846 41.0057 82.0846 40.7038V39.8224C82.0001 39.8667 81.8975 39.907 81.7767 39.9432C81.66 39.9794 81.5312 40.0136 81.3904 40.0458C81.2495 40.078 81.1046 40.1062 80.9557 40.1303C80.8068 40.1545 80.6639 40.1766 80.5271 40.1967C80.2494 40.241 80.0119 40.3094 79.8147 40.402C79.6215 40.4946 79.4726 40.6153 79.368 40.7642C79.2674 40.9091 79.2171 41.0821 79.2171 41.2834C79.2171 41.5892 79.3257 41.8227 79.5431 41.9837C79.7644 42.1446 80.0441 42.2251 80.3822 42.2251ZM89.7696 38.7116V44H86.8176V34.7273H89.6247V36.4297H89.7274C89.9326 35.8622 90.2828 35.4175 90.7778 35.0955C91.2728 34.7695 91.8624 34.6065 92.5466 34.6065C93.1986 34.6065 93.764 34.7534 94.243 35.0472C94.7259 35.337 95.1002 35.7435 95.3658 36.2667C95.6355 36.7859 95.7683 37.3936 95.7643 38.0898V44H92.8122V38.6694C92.8162 38.1542 92.6854 37.7518 92.4198 37.462C92.1582 37.1722 91.794 37.0273 91.3271 37.0273C91.0172 37.0273 90.7436 37.0958 90.5061 37.2326C90.2727 37.3654 90.0916 37.5566 89.9628 37.8061C89.838 38.0556 89.7736 38.3575 89.7696 38.7116ZM101.926 44.1751C100.957 44.1751 100.119 43.9839 99.4151 43.6016C98.7148 43.2152 98.1755 42.6658 97.7972 41.9535C97.4229 41.2371 97.2358 40.3859 97.2358 39.3999C97.2358 38.442 97.4249 37.6049 97.8033 36.8885C98.1816 36.1681 98.7148 35.6087 99.403 35.2102C100.091 34.8078 100.902 34.6065 101.836 34.6065C102.496 34.6065 103.1 34.7092 103.647 34.9144C104.194 35.1197 104.667 35.4235 105.066 35.826C105.464 36.2285 105.774 36.7255 105.995 37.3171C106.217 37.9047 106.327 38.5788 106.327 39.3395V40.076H98.2681V38.3615H103.581C103.577 38.0476 103.502 37.7679 103.357 37.5224C103.212 37.2769 103.013 37.0857 102.76 36.9489C102.51 36.808 102.222 36.7376 101.896 36.7376C101.566 36.7376 101.27 36.812 101.009 36.9609C100.747 37.1058 100.54 37.305 100.387 37.5586C100.234 37.8081 100.154 38.0919 100.146 38.4098V40.1545C100.146 40.5328 100.22 40.8648 100.369 41.1506C100.518 41.4323 100.729 41.6516 101.003 41.8086C101.277 41.9656 101.602 42.044 101.981 42.044C102.242 42.044 102.48 42.0078 102.693 41.9354C102.906 41.8629 103.09 41.7563 103.243 41.6154C103.395 41.4745 103.51 41.3015 103.587 41.0962L106.297 41.1747C106.185 41.7824 105.937 42.3117 105.555 42.7624C105.176 43.2092 104.679 43.5573 104.064 43.8068C103.448 44.0523 102.735 44.1751 101.926 44.1751ZM113.069 34.7273V36.9006H107.219V34.7273H113.069ZM108.445 32.5057H111.397V41.0842C111.397 41.2653 111.425 41.4122 111.481 41.5249C111.542 41.6335 111.628 41.712 111.741 41.7603C111.854 41.8046 111.989 41.8267 112.145 41.8267C112.258 41.8267 112.377 41.8166 112.502 41.7965C112.63 41.7724 112.727 41.7522 112.791 41.7361L113.238 43.8672C113.097 43.9074 112.898 43.9577 112.641 44.0181C112.387 44.0785 112.083 44.1167 111.729 44.1328C111.037 44.165 110.443 44.0845 109.948 43.8913C109.457 43.6941 109.081 43.3883 108.819 42.9737C108.562 42.5592 108.437 42.038 108.445 41.4102V32.5057ZM118.228 31.6364H121.928L125.068 39.2912H125.212L128.352 31.6364H132.052V44H129.142V36.4055H129.04L126.07 43.9215H124.21L121.24 36.3633H121.137V44H118.228V31.6364ZM133.916 44V34.7273H136.868V44H133.916ZM135.395 33.6467C134.981 33.6467 134.625 33.5098 134.327 33.2361C134.029 32.9584 133.88 32.6244 133.88 32.234C133.88 31.8477 134.029 31.5176 134.327 31.244C134.625 30.9663 134.981 30.8274 135.395 30.8274C135.814 30.8274 136.17 30.9663 136.464 31.244C136.762 31.5176 136.91 31.8477 136.91 32.234C136.91 32.6244 136.762 32.9584 136.464 33.2361C136.17 33.5098 135.814 33.6467 135.395 33.6467ZM141.699 38.7116V44H138.747V34.7273H141.554V36.4297H141.657C141.862 35.8622 142.212 35.4175 142.707 35.0955C143.202 34.7695 143.792 34.6065 144.476 34.6065C145.128 34.6065 145.694 34.7534 146.173 35.0472C146.656 35.337 147.03 35.7435 147.296 36.2667C147.565 36.7859 147.698 37.3936 147.694 38.0898V44H144.742V38.6694C144.746 38.1542 144.615 37.7518 144.349 37.462C144.088 37.1722 143.724 37.0273 143.257 37.0273C142.947 37.0273 142.673 37.0958 142.436 37.2326C142.202 37.3654 142.021 37.5566 141.892 37.8061C141.768 38.0556 141.703 38.3575 141.699 38.7116ZM153.856 44.1751C152.886 44.1751 152.049 43.9839 151.345 43.6016C150.645 43.2152 150.105 42.6658 149.727 41.9535C149.353 41.2371 149.165 40.3859 149.165 39.3999C149.165 38.442 149.355 37.6049 149.733 36.8885C150.111 36.1681 150.645 35.6087 151.333 35.2102C152.021 34.8078 152.832 34.6065 153.766 34.6065C154.426 34.6065 155.029 34.7092 155.577 34.9144C156.124 35.1197 156.597 35.4235 156.995 35.826C157.394 36.2285 157.704 36.7255 157.925 37.3171C158.146 37.9047 158.257 38.5788 158.257 39.3395V40.076H150.198V38.3615H155.51C155.506 38.0476 155.432 37.7679 155.287 37.5224C155.142 37.2769 154.943 37.0857 154.689 36.9489C154.44 36.808 154.152 36.7376 153.826 36.7376C153.496 36.7376 153.2 36.812 152.939 36.9609C152.677 37.1058 152.47 37.305 152.317 37.5586C152.164 37.8081 152.083 38.0919 152.075 38.4098V40.1545C152.075 40.5328 152.15 40.8648 152.299 41.1506C152.448 41.4323 152.659 41.6516 152.933 41.8086C153.206 41.9656 153.532 42.044 153.91 42.044C154.172 42.044 154.41 42.0078 154.623 41.9354C154.836 41.8629 155.019 41.7563 155.172 41.6154C155.325 41.4745 155.44 41.3015 155.516 41.0962L158.227 41.1747C158.114 41.7824 157.867 42.3117 157.484 42.7624C157.106 43.2092 156.609 43.5573 155.993 43.8068C155.377 44.0523 154.665 44.1751 153.856 44.1751ZM164.093 44.1751C163.115 44.1751 162.276 43.9738 161.576 43.5714C160.88 43.1689 160.344 42.6095 159.97 41.8931C159.596 41.1727 159.409 40.3396 159.409 39.3938C159.409 38.444 159.596 37.6109 159.97 36.8945C160.348 36.1741 160.886 35.6127 161.582 35.2102C162.282 34.8078 163.117 34.6065 164.087 34.6065C164.944 34.6065 165.691 34.7615 166.327 35.0714C166.967 35.3813 167.466 35.82 167.824 36.3874C168.186 36.9509 168.377 37.6129 168.398 38.3736H165.639C165.582 37.8987 165.421 37.5264 165.156 37.2567C164.894 36.9871 164.552 36.8523 164.129 36.8523C163.787 36.8523 163.488 36.9489 163.23 37.142C162.972 37.3312 162.771 37.6129 162.626 37.9872C162.485 38.3575 162.415 38.8163 162.415 39.3636C162.415 39.911 162.485 40.3738 162.626 40.7521C162.771 41.1264 162.972 41.4102 163.23 41.6033C163.488 41.7925 163.787 41.8871 164.129 41.8871C164.403 41.8871 164.645 41.8287 164.854 41.712C165.067 41.5953 165.242 41.4242 165.379 41.1989C165.516 40.9695 165.603 40.6918 165.639 40.3658H168.398C168.369 41.1304 168.178 41.7985 167.824 42.37C167.474 42.9415 166.981 43.3862 166.345 43.7042C165.713 44.0181 164.963 44.1751 164.093 44.1751ZM169.908 44V34.7273H172.776V36.4176H172.872C173.042 35.8059 173.317 35.3511 173.7 35.0533C174.082 34.7514 174.527 34.6005 175.034 34.6005C175.171 34.6005 175.311 34.6106 175.456 34.6307C175.601 34.6468 175.736 34.6729 175.861 34.7092V37.2749C175.72 37.2266 175.535 37.1883 175.305 37.1602C175.08 37.132 174.879 37.1179 174.702 37.1179C174.352 37.1179 174.036 37.1964 173.754 37.3533C173.476 37.5063 173.257 37.7216 173.096 37.9993C172.939 38.273 172.86 38.5949 172.86 38.9652V44H169.908ZM179.329 44.157C178.737 44.157 178.212 44.0584 177.753 43.8611C177.299 43.6599 176.938 43.3581 176.673 42.9556C176.411 42.5491 176.28 42.04 176.28 41.4283C176.28 40.9131 176.371 40.4785 176.552 40.1243C176.733 39.7701 176.983 39.4824 177.301 39.261C177.619 39.0397 177.985 38.8726 178.399 38.7599C178.814 38.6432 179.257 38.5647 179.727 38.5245C180.255 38.4762 180.679 38.4259 181.001 38.3736C181.323 38.3172 181.557 38.2388 181.701 38.1381C181.85 38.0335 181.925 37.8866 181.925 37.6974V37.6673C181.925 37.3574 181.818 37.1179 181.605 36.9489C181.392 36.7798 181.104 36.6953 180.742 36.6953C180.351 36.6953 180.037 36.7798 179.8 36.9489C179.562 37.1179 179.411 37.3513 179.347 37.6491L176.624 37.5526C176.705 36.9891 176.912 36.486 177.246 36.0433C177.584 35.5966 178.047 35.2464 178.635 34.9929C179.226 34.7353 179.937 34.6065 180.766 34.6065C181.357 34.6065 181.903 34.677 182.402 34.8178C182.901 34.9547 183.335 35.1559 183.706 35.4215C184.076 35.6831 184.362 36.0051 184.563 36.3874C184.768 36.7698 184.871 37.2064 184.871 37.6974V44H182.094V42.7081H182.021C181.856 43.022 181.645 43.2876 181.388 43.505C181.134 43.7223 180.834 43.8853 180.488 43.994C180.146 44.1026 179.76 44.157 179.329 44.157ZM180.241 42.2251C180.558 42.2251 180.844 42.1607 181.098 42.032C181.355 41.9032 181.561 41.7261 181.714 41.5007C181.867 41.2713 181.943 41.0057 181.943 40.7038V39.8224C181.858 39.8667 181.756 39.907 181.635 39.9432C181.518 39.9794 181.39 40.0136 181.249 40.0458C181.108 40.078 180.963 40.1062 180.814 40.1303C180.665 40.1545 180.522 40.1766 180.385 40.1967C180.108 40.241 179.87 40.3094 179.673 40.402C179.48 40.4946 179.331 40.6153 179.226 40.7642C179.126 40.9091 179.075 41.0821 179.075 41.2834C179.075 41.5892 179.184 41.8227 179.401 41.9837C179.623 42.1446 179.902 42.2251 180.241 42.2251ZM191.946 34.7273V36.9006H185.982V34.7273L191.946 34.7273ZM187.225 44V34.2564C187.225 33.54 187.36 32.9464 187.63 32.4755C187.899 32.0006 188.274 31.6464 188.753 31.413C189.232 31.1755 189.785 31.0568 190.413 31.0568C190.823 31.0568 191.21 31.089 191.572 31.1534C191.938 31.2138 192.21 31.2681 192.387 31.3164L191.916 33.4776C191.807 33.4414 191.674 33.4112 191.518 33.3871C191.365 33.3629 191.22 33.3509 191.083 33.3509C190.737 33.3509 190.499 33.4273 190.371 33.5803C190.242 33.7332 190.177 33.9425 190.177 34.2081V44H187.225ZM198.6 34.7273V36.9006H192.751V34.7273H198.6ZM193.976 32.5057H196.928V41.0842C196.928 41.2653 196.956 41.4122 197.013 41.5249C197.073 41.6335 197.16 41.712 197.272 41.7603C197.385 41.8046 197.52 41.8267 197.677 41.8267C197.789 41.8267 197.908 41.8166 198.033 41.7965C198.162 41.7724 198.258 41.7522 198.323 41.7361L198.769 43.8672C198.629 43.9074 198.429 43.9577 198.172 44.0181C197.918 44.0785 197.614 44.1167 197.26 44.1328C196.568 44.165 195.974 44.0845 195.479 43.8913C194.988 43.6941 194.612 43.3883 194.35 42.9737C194.093 42.5592 193.968 42.038 193.976 41.4102V32.5057Z" fill="#00C2FF"/>
</g>
<rect x="1.05" y="1.05" width="209.9" height="54.9" rx="6.95" stroke="#00659D" stroke-width="2.1"/>
<defs>
<filter id="filter0_d_1_50" x="54.4" y="4.4" width="151.2" height="48.2" filterUnits="userSpaceOnUse" color-interpolation-filters="sRGB">
<feFlood flood-opacity="0" result="BackgroundImageFix"/>
<feColorMatrix in="SourceAlpha" type="matrix" values="0 0 0 0 0 0 0 0 0 0 0 0 0 0 0 0 0 0 127 0" result="hardAlpha"/>
<feOffset/>
<feGaussianBlur stdDeviation="2.8"/>
<feComposite in2="hardAlpha" operator="out"/>
<feColorMatrix type="matrix" values="0 0 0 0 0 0 0 0 0 0 0 0 0 0 0 0 0 0 0.25 0"/>
<feBlend mode="normal" in2="BackgroundImageFix" result="effect1_dropShadow_1_50"/>
<feBlend mode="normal" in="SourceGraphic" in2="effect1_dropShadow_1_50" result="shape"/>
</filter>
<linearGradient id="paint0_linear_1_50" x1="106" y1="0" x2="106" y2="57" gradientUnits="userSpaceOnUse">
<stop stop-color="#003E87"/>
<stop offset="1" stop-color="#0B222F"/>
</linearGradient>
<clipPath id="clip0_1_50">
<rect width="40" height="41" fill="white" transform="translate(12 8)"/>
</clipPath>
</defs>
</svg>
